<?xml version="1.0" encoding="UTF-8"?>
<svg width="446px" height="254px" viewBox="0 0 446 254" version="1.1" xmlns="http://www.w3.org/2000/svg" xmlns:xlink="http://www.w3.org/1999/xlink">
    <!-- Generator: Sketch 47.1 (45422) - http://www.bohemiancoding.com/sketch -->
    <title>distributed-tasks</title>
    <desc>Created with Sketch.</desc>
    <defs>
        <linearGradient x1="50.0019532%" y1="0.00219423355%" x2="50.0019532%" y2="100%" id="linearGradient-1">
            <stop stop-color="#4387FD" offset="0%"></stop>
            <stop stop-color="#4683EA" offset="100%"></stop>
        </linearGradient>
        <path d="M31.3511336,120.025817 L1.88314481,69.5900708 C-0.422966271,65.6431625 -0.422966271,60.7803709 1.88314481,56.8334626 L31.3511336,6.39771632 C33.6568853,2.45142303 37.9178207,0.0201223845 42.5293241,0.0194122294 L101.465302,0.0194122294 C106.076805,0.0201223845 110.337741,2.45142303 112.643493,6.39771632 L142.111481,56.8334626 C144.417592,60.7803709 144.417592,65.6431625 142.111481,69.5900708 L112.643493,120.025817 C110.337741,123.97211 106.076805,126.403411 101.465302,126.404121 L42.5293241,126.404121 C37.9178207,126.403411 33.6568853,123.97211 31.3511336,120.025817 L31.3511336,120.025817 Z" id="path-2"></path>
        <path d="M31.3511336,120.025817 L1.88314481,69.5900708 C-0.422966271,65.6431625 -0.422966271,60.7803709 1.88314481,56.8334626 L31.3511336,6.39771632 C33.6568853,2.45142303 37.9178207,0.0201223845 42.5293241,0.0194122294 L101.465302,0.0194122294 C106.076805,0.0201223845 110.337741,2.45142303 112.643493,6.39771632 L142.111481,56.8334626 C144.417592,60.7803709 144.417592,65.6431625 142.111481,69.5900708 L112.643493,120.025817 C110.337741,123.97211 106.076805,126.403411 101.465302,126.404121 L42.5293241,126.404121 C37.9178207,126.403411 33.6568853,123.97211 31.3511336,120.025817 L31.3511336,120.025817 Z" id="path-4"></path>
        <path d="M31.3511336,120.025817 L1.88314481,69.5900708 C-0.422966271,65.6431625 -0.422966271,60.7803709 1.88314481,56.8334626 L31.3511336,6.39771632 C33.6568853,2.45142303 37.9178207,0.0201223845 42.5293241,0.0194122294 L101.465302,0.0194122294 C106.076805,0.0201223845 110.337741,2.45142303 112.643493,6.39771632 L142.111481,56.8334626 C144.417592,60.7803709 144.417592,65.6431625 142.111481,69.5900708 L112.643493,120.025817 C110.337741,123.97211 106.076805,126.403411 101.465302,126.404121 L42.5293241,126.404121 C37.9178207,126.403411 33.6568853,123.97211 31.3511336,120.025817 L31.3511336,120.025817 Z" id="path-6"></path>
        <path d="M31.3511336,120.025817 L1.88314481,69.5900708 C-0.422966271,65.6431625 -0.422966271,60.7803709 1.88314481,56.8334626 L31.3511336,6.39771632 C33.6568853,2.45142303 37.9178207,0.0201223845 42.5293241,0.0194122294 L101.465302,0.0194122294 C106.076805,0.0201223845 110.337741,2.45142303 112.643493,6.39771632 L142.111481,56.8334626 C144.417592,60.7803709 144.417592,65.6431625 142.111481,69.5900708 L112.643493,120.025817 C110.337741,123.97211 106.076805,126.403411 101.465302,126.404121 L42.5293241,126.404121 C37.9178207,126.403411 33.6568853,123.97211 31.3511336,120.025817 L31.3511336,120.025817 Z" id="path-8"></path>
        <path d="M31.3511336,120.025817 L1.88314481,69.5900708 C-0.422966271,65.6431625 -0.422966271,60.7803709 1.88314481,56.8334626 L31.3511336,6.39771632 C33.6568853,2.45142303 37.9178207,0.0201223845 42.5293241,0.0194122294 L101.465302,0.0194122294 C106.076805,0.0201223845 110.337741,2.45142303 112.643493,6.39771632 L142.111481,56.8334626 C144.417592,60.7803709 144.417592,65.6431625 142.111481,69.5900708 L112.643493,120.025817 C110.337741,123.97211 106.076805,126.403411 101.465302,126.404121 L42.5293241,126.404121 C37.9178207,126.403411 33.6568853,123.97211 31.3511336,120.025817 L31.3511336,120.025817 Z" id="path-10"></path>
        <path d="M1.88314481,69.5900708 C-0.422966271,65.6431625 -0.422966271,60.7803709 1.88314481,56.8334626 L31.3511336,6.39771632 C33.6568853,2.45142303 37.9178207,0.0201223845 42.5293241,0.0194122294 L101.465302,0.0194122294 C106.076805,0.0201223845 110.337741,2.45142303 112.643493,6.39771632 L142.111481,56.8334626 C144.417592,60.7803709 144.417592,65.6431625 142.111481,69.5900708 L112.643493,120.025817 C110.337741,123.97211 106.076805,126.403411 101.465302,126.404121 L42.5293241,126.404121 C37.9178207,126.403411 33.6568853,123.97211 31.3511336,120.025817 L1.88314481,69.5900708 Z" id="path-12"></path>
    </defs>
    <g id="Page-1" stroke="none" stroke-width="1" fill="none" fill-rule="evenodd">
        <g id="desktop-cloud-tasks" transform="translate(-797.000000, -448.000000)">
            <g id="Introduction" transform="translate(165.000000, 448.000000)">
                <g id="distributed-tasks" transform="translate(632.000000, 0.000000)">
                    <rect id="Rectangle-4" fill="#293841" opacity="0.0572577008" x="45" y="4" width="379" height="224"></rect>
                    <rect id="Rectangle-4-Copy" fill="#FFFFFF" x="41" y="0" width="386" height="224"></rect>
                    <g id="Group-21-Copy-2" transform="translate(83.000000, 48.000000)">
                        <ellipse id="Oval-41" fill="#EBEBEB" cx="15.7609433" cy="14.9659745" rx="15.1049339" ry="14.9659745"></ellipse>
                        <polygon id="Path-156" fill="#FFFFFF" points="6.25945266 16.7119027 12.3168433 22.7714393 25.4558613 9.77521785 22.8117603 7.24160057 12.3168433 17.7188199 8.71298137 14.2281422"></polygon>
                    </g>
                    <g id="Group-21-Copy-6" transform="translate(174.000000, 48.000000)">
                        <ellipse id="Oval-41" fill="#8BC34A" cx="15.7609433" cy="14.9659745" rx="15.1049339" ry="14.9659745"></ellipse>
                        <polygon id="Path-156" fill="#FFFFFF" points="6.25945266 16.7119027 12.3168433 22.7714393 25.4558613 9.77521785 22.8117603 7.24160057 12.3168433 17.7188199 8.71298137 14.2281422"></polygon>
                    </g>
                    <g id="Group-21-Copy-3" transform="translate(83.000000, 87.000000)">
                        <ellipse id="Oval-41" fill="#EBEBEB" cx="15.7609433" cy="14.9659745" rx="15.1049339" ry="14.9659745"></ellipse>
                        <polygon id="Path-156" fill="#FFFFFF" points="6.25945266 16.7119027 12.3168433 22.7714393 25.4558613 9.77521785 22.8117603 7.24160057 12.3168433 17.7188199 8.71298137 14.2281422"></polygon>
                    </g>
                    <g id="Group-21-Copy-7" transform="translate(174.000000, 87.000000)">
                        <ellipse id="Oval-41" fill="#EBEBEB" cx="15.7609433" cy="14.9659745" rx="15.1049339" ry="14.9659745"></ellipse>
                        <polygon id="Path-156" fill="#FFFFFF" points="6.25945266 16.7119027 12.3168433 22.7714393 25.4558613 9.77521785 22.8117603 7.24160057 12.3168433 17.7188199 8.71298137 14.2281422"></polygon>
                    </g>
                    <g id="Group-21-Copy-4" transform="translate(83.000000, 126.000000)">
                        <ellipse id="Oval-41" fill="#8BC34A" cx="15.7609433" cy="14.9659745" rx="15.1049339" ry="14.9659745"></ellipse>
                        <polygon id="Path-156" fill="#FFFFFF" points="6.25945266 16.7119027 12.3168433 22.7714393 25.4558613 9.77521785 22.8117603 7.24160057 12.3168433 17.7188199 8.71298137 14.2281422"></polygon>
                    </g>
                    <g id="Group-21-Copy-8" transform="translate(174.000000, 126.000000)">
                        <ellipse id="Oval-41" fill="#EBEBEB" cx="15.7609433" cy="14.9659745" rx="15.1049339" ry="14.9659745"></ellipse>
                        <polygon id="Path-156" fill="#FFFFFF" points="6.25945266 16.7119027 12.3168433 22.7714393 25.4558613 9.77521785 22.8117603 7.24160057 12.3168433 17.7188199 8.71298137 14.2281422"></polygon>
                    </g>
                    <g id="Group-21-Copy-5" transform="translate(83.000000, 165.000000)">
                        <ellipse id="Oval-41" fill="#EBEBEB" cx="15.7609433" cy="14.9659745" rx="15.1049339" ry="14.9659745"></ellipse>
                        <polygon id="Path-156" fill="#FFFFFF" points="6.25945266 16.7119027 12.3168433 22.7714393 25.4558613 9.77521785 22.8117603 7.24160057 12.3168433 17.7188199 8.71298137 14.2281422"></polygon>
                    </g>
                    <g id="Group-21-Copy-9" transform="translate(174.000000, 165.000000)">
                        <ellipse id="Oval-41" fill="#8BC34A" cx="15.7609433" cy="14.9659745" rx="15.1049339" ry="14.9659745"></ellipse>
                        <polygon id="Path-156" fill="#FFFFFF" points="6.25945266 16.7119027 12.3168433 22.7714393 25.4558613 9.77521785 22.8117603 7.24160057 12.3168433 17.7188199 8.71298137 14.2281422"></polygon>
                    </g>
                    <g id="Group-21-Copy-13" transform="translate(265.000000, 48.000000)">
                        <ellipse id="Oval-41" fill="#EBEBEB" cx="15.7609433" cy="14.9659745" rx="15.1049339" ry="14.9659745"></ellipse>
                        <polygon id="Path-156" fill="#FFFFFF" points="6.25945266 16.7119027 12.3168433 22.7714393 25.4558613 9.77521785 22.8117603 7.24160057 12.3168433 17.7188199 8.71298137 14.2281422"></polygon>
                    </g>
                    <g id="Group-21-Copy-12" transform="translate(265.000000, 87.000000)">
                        <ellipse id="Oval-41" fill="#EBEBEB" cx="15.7609433" cy="14.9659745" rx="15.1049339" ry="14.9659745"></ellipse>
                        <polygon id="Path-156" fill="#FFFFFF" points="6.25945266 16.7119027 12.3168433 22.7714393 25.4558613 9.77521785 22.8117603 7.24160057 12.3168433 17.7188199 8.71298137 14.2281422"></polygon>
                    </g>
                    <g id="Group-21-Copy-11" transform="translate(265.000000, 126.000000)">
                        <ellipse id="Oval-41" fill="#EBEBEB" cx="15.7609433" cy="14.9659745" rx="15.1049339" ry="14.9659745"></ellipse>
                        <polygon id="Path-156" fill="#FFFFFF" points="6.25945266 16.7119027 12.3168433 22.7714393 25.4558613 9.77521785 22.8117603 7.24160057 12.3168433 17.7188199 8.71298137 14.2281422"></polygon>
                    </g>
                    <g id="Group-21-Copy-10" transform="translate(265.000000, 165.000000)">
                        <ellipse id="Oval-41" fill="#8BC34A" cx="15.7609433" cy="14.9659745" rx="15.1049339" ry="14.9659745"></ellipse>
                        <polygon id="Path-156" fill="#FFFFFF" points="6.25945266 16.7119027 12.3168433 22.7714393 25.4558613 9.77521785 22.8117603 7.24160057 12.3168433 17.7188199 8.71298137 14.2281422"></polygon>
                    </g>
                    <g id="Group-21-Copy-17" transform="translate(356.000000, 48.000000)">
                        <ellipse id="Oval-41" fill="#EBEBEB" cx="15.7609433" cy="14.9659745" rx="15.1049339" ry="14.9659745"></ellipse>
                        <polygon id="Path-156" fill="#FFFFFF" points="6.25945266 16.7119027 12.3168433 22.7714393 25.4558613 9.77521785 22.8117603 7.24160057 12.3168433 17.7188199 8.71298137 14.2281422"></polygon>
                    </g>
                    <g id="Group-21-Copy-16" transform="translate(356.000000, 87.000000)">
                        <ellipse id="Oval-41" fill="#8BC34A" cx="15.7609433" cy="14.9659745" rx="15.1049339" ry="14.9659745"></ellipse>
                        <polygon id="Path-156" fill="#FFFFFF" points="6.25945266 16.7119027 12.3168433 22.7714393 25.4558613 9.77521785 22.8117603 7.24160057 12.3168433 17.7188199 8.71298137 14.2281422"></polygon>
                    </g>
                    <g id="Group-21-Copy-15" transform="translate(356.000000, 126.000000)">
                        <ellipse id="Oval-41" fill="#EBEBEB" cx="15.7609433" cy="14.9659745" rx="15.1049339" ry="14.9659745"></ellipse>
                        <polygon id="Path-156" fill="#FFFFFF" points="6.25945266 16.7119027 12.3168433 22.7714393 25.4558613 9.77521785 22.8117603 7.24160057 12.3168433 17.7188199 8.71298137 14.2281422"></polygon>
                    </g>
                    <g id="Group-21-Copy-14" transform="translate(356.000000, 165.000000)">
                        <ellipse id="Oval-41" fill="#EBEBEB" cx="15.7609433" cy="14.9659745" rx="15.1049339" ry="14.9659745"></ellipse>
                        <polygon id="Path-156" fill="#FFFFFF" points="6.25945266 16.7119027 12.3168433 22.7714393 25.4558613 9.77521785 22.8117603 7.24160057 12.3168433 17.7188199 8.71298137 14.2281422"></polygon>
                    </g>
                    <rect id="Rectangle-6" fill="#DDDFE0" x="73" y="27" width="50" height="8"></rect>
                    <rect id="Rectangle-6-Copy" fill="#DDDFE0" x="164" y="27" width="50" height="8"></rect>
                    <rect id="Rectangle-6-Copy-2" fill="#DDDFE0" x="255" y="27" width="50" height="8"></rect>
                    <rect id="Rectangle-6-Copy-3" fill="#DDDFE0" x="346" y="27" width="50" height="8"></rect>
                    <path d="M248,254 C244.592952,238.726483 231.258647,227.328843 215.294396,227.328843 C214.163203,227.328843 213.04706,227.39363 211.943591,227.49405 C201.932367,195.316814 172.4936,172 137.69513,172 C105.781679,172 78.3771605,191.645825 66.3316883,219.724478 C59.7267201,215.692302 52.0483852,213.3211 43.8052455,213.3211 C20.9120359,213.3211 2.13564335,231.174757 0,254 L248,254 Z" id="Fill-1-Copy-3" fill="#EBEBEB"></path>
                    <path d="M446,254 C442.592952,238.726483 429.258647,227.328843 413.294396,227.328843 C412.163203,227.328843 411.04706,227.39363 409.943591,227.49405 C399.932367,195.316814 370.4936,172 335.69513,172 C303.781679,172 276.37716,191.645825 264.331688,219.724478 C257.72672,215.692302 250.048385,213.3211 241.805245,213.3211 C218.912036,213.3211 200.135643,231.174757 198,254 L446,254 Z" id="Fill-1-Copy-4" fill="#EBEBEB"></path>
                    <g id="128px_Tasks" transform="translate(162.000000, 126.000000)">
                        <g id="Mask" fill-rule="nonzero" fill="url(#linearGradient-1)">
                            <path d="M31.3511336,120.025817 L1.88314481,69.5900708 C-0.422966271,65.6431625 -0.422966271,60.7803709 1.88314481,56.8334626 L31.3511336,6.39771632 C33.6568853,2.45142303 37.9178207,0.0201223845 42.5293241,0.0194122294 L101.465302,0.0194122294 C106.076805,0.0201223845 110.337741,2.45142303 112.643493,6.39771632 L142.111481,56.8334626 C144.417592,60.7803709 144.417592,65.6431625 142.111481,69.5900708 L112.643493,120.025817 C110.337741,123.97211 106.076805,126.403411 101.465302,126.404121 L42.5293241,126.404121 C37.9178207,126.403411 33.6568853,123.97211 31.3511336,120.025817 L31.3511336,120.025817 Z" id="path-2"></path>
                        </g>
                        <g id="Shape-Clipped">
                            <mask id="mask-3" fill="white">
                                <use xlink:href="#path-2"></use>
                            </mask>
                            <g id="path-2"></g>
                            <polygon id="Shape" fill="#000000" fill-rule="nonzero" opacity="0.07" mask="url(#mask-3)" points="102.00209 40.2262059 142.578107 79.7911035 114.279667 128.270469 90.8939669 135.276451 41.8115235 86.4824244 48.5034723 40.2397979 60.5372039 51.6988338 61.8864667 40.2262059 74.0132456 51.6988338 75.2650491 40.2262059 88.2281578 52.5917964 88.6266035 40.2262059 101.51955 52.7027233 99.1018609 41.1955249"></polygon>
                        </g>
                        <g id="Rectangle-path-Clipped">
                            <mask id="mask-5" fill="white">
                                <use xlink:href="#path-4"></use>
                            </mask>
                            <g id="path-2"></g>
                            <rect id="Rectangle-path" fill="#FFFFFF" fill-rule="nonzero" mask="url(#mask-5)" x="41.8164794" y="40.2110475" width="6.68948693" height="46.2708031"></rect>
                        </g>
                        <g id="Rectangle-path-Clipped">
                            <mask id="mask-7" fill="white">
                                <use xlink:href="#path-6"></use>
                            </mask>
                            <g id="path-2"></g>
                            <rect id="Rectangle-path" fill="#FFFFFF" fill-rule="nonzero" mask="url(#mask-7)" x="95.3323748" y="40.2110475" width="6.68948693" height="46.2708031"></rect>
                        </g>
                        <g id="Rectangle-path-Clipped">
                            <mask id="mask-9" fill="white">
                                <use xlink:href="#path-8"></use>
                            </mask>
                            <g id="path-2"></g>
                            <rect id="Rectangle-path" fill="#FFFFFF" fill-rule="nonzero" mask="url(#mask-9)" x="68.5744271" y="40.2110475" width="6.68948693" height="46.2708031"></rect>
                        </g>
                        <g id="Rectangle-path-Clipped">
                            <mask id="mask-11" fill="white">
                                <use xlink:href="#path-10"></use>
                            </mask>
                            <g id="path-2"></g>
                            <rect id="Rectangle-path" fill="#FFFFFF" fill-rule="nonzero" mask="url(#mask-11)" x="55.1954533" y="40.2110475" width="6.68948693" height="46.2708031"></rect>
                        </g>
                        <g id="Rectangle-path-Clipped">
                            <mask id="mask-13" fill="white">
                                <use xlink:href="#path-12"></use>
                            </mask>
                            <g id="path-2"></g>
                            <rect id="Rectangle-path" fill="#FFFFFF" fill-rule="nonzero" mask="url(#mask-13)" x="81.953401" y="40.2110475" width="6.68948693" height="46.2708031"></rect>
                        </g>
                    </g>
                    <path d="M206.017189,242.253508 C201.983402,234.960471 194.066147,230 184.948082,230 C175.786609,230 167.837851,235.012547 163.827629,242.367063 C162.936138,242.135855 162.004959,241.998915 161.042029,241.998915 C157.372628,241.998915 154.13905,243.782515 152.189874,246.497453 C149.550623,242.172501 144.712411,239.266377 139.160807,239.266377 C130.791853,239.266377 124,245.861935 124,254 L229,254 C228.83331,246.171979 222.263462,239.873206 214.172076,239.873206 C211.160502,239.873206 208.358779,240.752951 206.017189,242.253508 Z" id="Fill-3-Copy" fill="#FFFFFF"></path>
                    <path d="M306.017189,242.253508 C301.983402,234.960471 294.066147,230 284.948082,230 C275.786609,230 267.837851,235.012547 263.827629,242.367063 C262.936138,242.135855 262.004959,241.998915 261.042029,241.998915 C257.372628,241.998915 254.13905,243.782515 252.189874,246.497453 C249.550623,242.172501 244.712411,239.266377 239.160807,239.266377 C230.791853,239.266377 224,245.861935 224,254 L329,254 C328.83331,246.171979 322.263462,239.873206 314.172076,239.873206 C311.160502,239.873206 308.358779,240.752951 306.017189,242.253508 Z" id="Fill-3-Copy-2" fill="#FFFFFF"></path>
                    <path d="M229.017189,242.253508 C224.983402,234.960471 217.066147,230 207.948082,230 C198.786609,230 190.837851,235.012547 186.827629,242.367063 C185.936138,242.135855 185.004959,241.998915 184.042029,241.998915 C180.372628,241.998915 177.13905,243.782515 175.189874,246.497453 C172.550623,242.172501 167.712411,239.266377 162.160807,239.266377 C153.791853,239.266377 147,245.861935 147,254 L252,254 C251.83331,246.171979 245.263462,239.873206 237.172076,239.873206 C234.160502,239.873206 231.358779,240.752951 229.017189,242.253508 Z" id="Fill-3-Copy" fill="#FFFFFF"></path>
                </g>
            </g>
        </g>
    </g>
</svg>